<?xml version="1.0" encoding="UTF-8" standalone="no"?>
<!DOCTYPE svg PUBLIC "-//W3C//DTD SVG 1.1//EN" "http://www.w3.org/Graphics/SVG/1.1/DTD/svg11.dtd">
<svg width="100%" height="100%" viewBox="0 0 16 16" version="1.1" xmlns="http://www.w3.org/2000/svg" xmlns:xlink="http://www.w3.org/1999/xlink" xml:space="preserve" xmlns:serif="http://www.serif.com/" style="fill-rule:evenodd;clip-rule:evenodd;stroke-linejoin:round;stroke-miterlimit:2;">
    <g transform="matrix(1.452,0,0,1.46095,-5.35217,2.18657)">
        <path d="M7.999,5.25L7.999,4.746C7.999,4.363 8.077,4.04 8.233,3.776C8.389,3.512 8.667,3.255 9.065,3.005C9.382,2.806 9.609,2.626 9.748,2.466C9.886,2.306 9.956,2.123 9.956,1.916C9.956,1.751 9.882,1.622 9.733,1.526C9.585,1.43 9.391,1.382 9.153,1.382C8.563,1.382 7.874,1.591 7.085,2.009L6.27,0.416C7.243,-0.139 8.258,-0.416 9.317,-0.416C10.188,-0.416 10.872,-0.225 11.368,0.158C11.864,0.541 12.112,1.062 12.112,1.722C12.112,2.195 12.002,2.604 11.781,2.95C11.56,3.295 11.208,3.623 10.723,3.931C10.313,4.197 10.056,4.391 9.953,4.514C9.849,4.637 9.798,4.783 9.798,4.951L9.798,5.25L7.999,5.25ZM7.747,7.3C7.747,6.941 7.851,6.664 8.06,6.468C8.269,6.273 8.577,6.175 8.983,6.175C9.374,6.175 9.673,6.274 9.882,6.471C10.091,6.668 10.196,6.945 10.196,7.3C10.196,7.656 10.088,7.931 9.871,8.126C9.654,8.322 9.358,8.419 8.983,8.419C8.596,8.419 8.294,8.323 8.075,8.129C7.856,7.936 7.747,7.66 7.747,7.3Z" style="fill:rgb(224,224,224);fill-rule:nonzero;"/>
    </g>
</svg>
